<svg width="14" height="14" viewBox="0 0 14 14" fill="none" xmlns="http://www.w3.org/2000/svg">
<g clip-path="url(#clip0_349_6)">
<path d="M13.2708 0.729227C12.3667 -0.145773 10.9667 -0.233273 9.975 0.52506L4.2 4.60839C4.1125 4.66673 4.025 4.78339 3.99583 4.90006L3.38333 7.14589C2.59583 7.17506 1.86667 7.46673 1.28333 7.99173C1.225 8.05006 1.16667 8.10839 1.10833 8.16673C0.0583333 9.24589 0 12.8042 0 13.5042C0 13.5334 0 13.5626 0 13.5917V13.6209C0 13.6501 0 13.6501 0.0291667 13.6792C0.0291667 13.7084 0.0583333 13.7084 0.0583333 13.7084C0.0583333 13.7084 0.0583333 13.7376 0.0875 13.7376C0.116667 13.7667 0.116667 13.7959 0.145833 13.7959C0.175 13.8251 0.175 13.8251 0.204167 13.8542L0.233333 13.8834L0.2625 13.9126C0.291667 13.9126 0.291667 13.9126 0.320833 13.9417H0.35C0.379167 13.9417 0.408333 13.9417 0.4375 13.9417C1.1375 13.9417 4.69583 13.8834 5.775 12.8042C6.44583 12.1917 6.76667 11.3751 6.79583 10.5292L9.04167 9.91673C9.15833 9.88756 9.24583 9.82923 9.33333 9.71256L13.3875 3.96673C14.2333 3.03339 14.1458 1.63339 13.2708 0.729227ZM5.1625 12.1334C4.69583 12.6001 3.12083 12.8626 1.75 12.9501L4.1125 10.5876C4.31667 10.3834 4.31667 10.0626 4.1125 9.88756C3.90833 9.68339 3.5875 9.68339 3.4125 9.88756L1.05 12.2501C1.1375 10.8792 1.4 9.33339 1.86667 8.83756C1.89583 8.77923 1.95417 8.75006 1.98333 8.72089C2.39167 8.34173 2.91667 8.13756 3.5 8.13756C3.52917 8.13756 3.55833 8.13756 3.5875 8.13756C3.64583 8.13756 3.70417 8.13756 3.73333 8.13756C4.25833 8.19589 4.75417 8.45839 5.13333 8.86673C5.5125 9.24589 5.775 9.71256 5.83333 10.2376C5.95 10.9084 5.71667 11.6376 5.1625 12.1334ZM12.6583 3.44173L8.69167 9.07089L6.7375 9.59589C6.59167 9.12923 6.35833 8.69173 6.00833 8.31256C5.95 8.25423 5.89167 8.19589 5.83333 8.13756C5.425 7.70006 4.92917 7.40839 4.40417 7.26256L4.92917 5.30839L10.5875 1.31256C11.1708 0.845893 12.0167 0.904227 12.5708 1.42923C13.0958 1.98339 13.1542 2.82923 12.6583 3.44173Z" fill="#5E5856"/>
</g>
<defs>
<clipPath id="clip0_349_6">
<rect width="14" height="14" fill="white"/>
</clipPath>
</defs>
</svg>
